{
  "accessors": [
    {
      "bufferView": 2,
      "componentType": 5126,
      "count": 3382,
      "max": [
        0.8841009736061096,
        2.299328088760376,
        2.776399612426758
      ],
      "min": [
        -1.4895901679992676,
        -0.009556123986840248,
        -1.9376442432403564
      ],
      "type": "VEC3"
    },
    {
      "bufferView": 2,
      "byteOffset": 40584,
      "componentType": 5126,
      "count": 3382,
      "max": [
        0.999984860420227,
        0.999984860420227,
        0.999984860420227
      ],
      "min": [
        -0.999984860420227,
        -0.9999216198921204,
        -0.999984860420227
      ],
      "type": "VEC3"
    },
    {
      "bufferView": 1,
      "componentType": 5126,
      "count": 3382,
      "max": [
        1.994140625,
        0.0999755859375
      ],
      "min": [
        -2.328125,
        -0.998046875
      ],
      "type": "VEC2"
    },
    {
      "bufferView": 1,
      "byteOffset": 27056,
      "componentType": 5126,
      "count": 3382,
      "max": [
        1.994140625,
        0.0999755859375
      ],
      "min": [
        -2.328125,
        -0.998046875
      ],
      "type": "VEC2"
    },
    {
      "bufferView": 1,
      "byteOffset": 54112,
      "componentType": 5126,
      "count": 3382,
      "max": [
        0.0,
        12.15625
      ],
      "min": [
        0.0,
        -12.5234375
      ],
      "type": "VEC2"
    },
    {
      "bufferView": 1,
      "byteOffset": 81168,
      "componentType": 5126,
      "count": 3382,
      "max": [
        1.994140625,
        0.0999755859375
      ],
      "min": [
        -2.328125,
        -0.998046875
      ],
      "type": "VEC2"
    },
    {
      "bufferView": 1,
      "byteOffset": 108224,
      "componentType": 5126,
      "count": 3382,
      "max": [
        1.994140625,
        0.0999755859375
      ],
      "min": [
        -2.328125,
        -0.998046875
      ],
      "type": "VEC2"
    },
    {
      "bufferView": 1,
      "byteOffset": 135280,
      "componentType": 5126,
      "count": 3382,
      "max": [
        1.994140625,
        0.0999755859375
      ],
      "min": [
        -2.328125,
        -0.998046875
      ],
      "type": "VEC2"
    },
    {
      "bufferView": 1,
      "byteOffset": 162336,
      "componentType": 5126,
      "count": 3382,
      "max": [
        1.994140625,
        0.0999755859375
      ],
      "min": [
        -2.328125,
        -0.998046875
      ],
      "type": "VEC2"
    },
    {
      "bufferView": 1,
      "byteOffset": 189392,
      "componentType": 5126,
      "count": 3382,
      "max": [
        1.994140625,
        0.0999755859375
      ],
      "min": [
        -2.328125,
        -0.998046875
      ],
      "type": "VEC2"
    },
    {
      "bufferView": 1,
      "byteOffset": 216448,
      "componentType": 5126,
      "count": 3382,
      "max": [
        1.994140625,
        0.0999755859375
      ],
      "min": [
        -2.328125,
        -0.998046875
      ],
      "type": "VEC2"
    },
    {
      "bufferView": 1,
      "byteOffset": 243504,
      "componentType": 5126,
      "count": 3382,
      "max": [
        1.994140625,
        0.0999755859375
      ],
      "min": [
        -2.328125,
        -0.998046875
      ],
      "type": "VEC2"
    },
    {
      "bufferView": 0,
      "componentType": 5125,
      "count": 13635,
      "type": "SCALAR"
    }
  ],
  "asset": {
    "extras": {
      "author": "RamonaFlowers🌼 (https://sketchfab.com/ramonaflowers)",
      "license": "CC-BY-4.0 (http://creativecommons.org/licenses/by/4.0/)",
      "source": "https://sketchfab.com/3d-models/gcpd-cop-car-ac22cff222d44e37983c34a2b3a8cfc4",
      "title": "GCPD Cop Car"
    },
    "generator": "Sketchfab-15.76.0",
    "version": "2.0"
  },
  "bufferViews": [
    {
      "buffer": 0,
      "byteLength": 54540,
      "name": "floatBufferViews",
      "target": 34963
    },
    {
      "buffer": 0,
      "byteLength": 270560,
      "byteOffset": 54540,
      "byteStride": 8,
      "name": "floatBufferViews",
      "target": 34962
    },
    {
      "buffer": 0,
      "byteLength": 81168,
      "byteOffset": 325100,
      "byteStride": 12,
      "name": "floatBufferViews",
      "target": 34962
    }
  ],
  "buffers": [
    {
      "byteLength": 406268,
      "uri": "scene.bin"
    }
  ],
  "images": [
    {
      "uri": "textures/MI_CopCar_baseColor.jpeg"
    }
  ],
  "materials": [
    {
      "doubleSided": true,
      "name": "MI_CopCar",
      "pbrMetallicRoughness": {
        "baseColorTexture": {
          "index": 0
        },
        "metallicFactor": 0.0,
        "roughnessFactor": 0.6
      }
    }
  ],
  "meshes": [
    {
      "name": "KCar-Copper_Car_LOD0.mo_MI_CopCar_0",
      "primitives": [
        {
          "attributes": {
            "NORMAL": 1,
            "POSITION": 0,
            "TEXCOORD_0": 2,
            "TEXCOORD_1": 3,
            "TEXCOORD_2": 4,
            "TEXCOORD_3": 5,
            "TEXCOORD_4": 6,
            "TEXCOORD_5": 7,
            "TEXCOORD_6": 8,
            "TEXCOORD_7": 9,
            "TEXCOORD_8": 10,
            "TEXCOORD_9": 11
          },
          "indices": 12,
          "material": 0,
          "mode": 4
        }
      ]
    }
  ],
  "nodes": [
    {
      "children": [
        1
      ],
      "matrix": [
        1.0,
        0.0,
        0.0,
        0.0,
        0.0,
        2.220446049250313e-16,
        -1.0,
        0.0,
        0.0,
        1.0,
        2.220446049250313e-16,
        0.0,
        0.0,
        0.0,
        0.0,
        1.0
      ],
      "name": "Sketchfab_model"
    },
    {
      "children": [
        2
      ],
      "matrix": [
        1.0,
        0.0,
        0.0,
        0.0,
        0.0,
        0.0,
        1.0,
        0.0,
        0.0,
        -1.0,
        0.0,
        0.0,
        0.0,
        0.0,
        0.0,
        1.0
      ],
      "name": "9b063082df894398bb67fd69aa50198d.fbx"
    },
    {
      "children": [
        3
      ],
      "name": "RootNode"
    },
    {
      "children": [
        4
      ],
      "name": "KCar-Copper_Car_LOD0.mo"
    },
    {
      "mesh": 0,
      "name": "KCar-Copper_Car_LOD0.mo_MI_CopCar_0"
    }
  ],
  "samplers": [
    {
      "magFilter": 9729,
      "minFilter": 9987,
      "wrapS": 10497,
      "wrapT": 10497
    }
  ],
  "scene": 0,
  "scenes": [
    {
      "name": "Sketchfab_Scene",
      "nodes": [
        0
      ]
    }
  ],
  "textures": [
    {
      "sampler": 0,
      "source": 0
    }
  ]
}
